<?xml version="1.0" encoding="utf-8"?>
<!-- Generator: Adobe Illustrator 19.2.1, SVG Export Plug-In . SVG Version: 6.00 Build 0)  -->
<svg version="1.1" id="Layer_1" xmlns="http://www.w3.org/2000/svg" xmlns:xlink="http://www.w3.org/1999/xlink" x="0px" y="0px"
	 viewBox="0 0 92.5 92.5" style="enable-background:new 0 0 92.5 92.5;" xml:space="preserve">
<style type="text/css">
	.st0{fill:#DA6666;}
	.st1{fill:#DA6666;stroke:#FFFFFF;}
	.st2{fill:#FFFFFF;}
</style>
<circle class="st0" cx="46.3" cy="46.3" r="45.5"/>
<circle class="st1" cx="46.3" cy="46.3" r="43.5"/>
<g>
	<g>
		<path class="st2" d="M45.2,16.9c-12.4,0-22.5,10.1-22.5,22.5s22.5,38.5,22.5,38.5s22.5-26.1,22.5-38.5S57.6,16.9,45.2,16.9z
			 M45,48.1c-5.6,0-10.1-4.5-10.1-10.1c0-5.6,4.5-10.2,10.1-10.2s10.1,4.5,10.1,10.2C55.2,43.5,50.6,48.1,45,48.1z"/>
	</g>
</g>
<rect x="-0.4" y="8.4" class="st1" width="1.2" height="1.2"/>
<rect x="91.8" y="16.6" class="st1" width="1.2" height="2.3"/>
<rect x="91.4" y="79.8" class="st1" width="2.4" height="3.1"/>
<rect x="-3.9" y="86.3" class="st1" width="4.7" height="2.3"/>
<rect x="11.8" y="90.8" class="st1" width="0.8" height="3.1"/>
<rect x="16" y="-1.8" class="st1" width="1.4" height="5.2"/>
</svg>
